<svg width="512" height="512" viewBox="0 0 512 512" fill="none" xmlns="http://www.w3.org/2000/svg">
<path d="M512 512H0V0H512V512ZM298.705 364.29C269.095 364.29 240.745 382.35 240.745 423.3C240.745 464.25 269.095 482.73 298.705 482.73C328.105 482.73 356.455 464.25 356.455 423.3C356.455 382.35 328.105 364.29 298.705 364.29ZM226.5 366.18C210.96 366.81 200.67 374.79 195.21 387.81V367.02H167.28V480H196.26V422.46C196.26 402.09 205.08 394.74 222.09 394.74C225.24 394.74 227.97 394.95 231.96 395.37V366.39C230.07 366.18 228.18 366.18 226.5 366.18ZM378.306 327.75V480H407.285V420.78C407.285 398.73 415.476 387.81 431.646 387.81C450.335 387.81 451.596 401.67 451.596 418.47V480H480.575V410.91C480.575 381.93 471.125 364.71 442.775 364.71C424.716 364.71 412.745 373.53 407.285 382.77V327.75H378.306ZM298.705 387.39C313.615 387.39 326.636 397.26 326.636 423.3C326.636 449.34 313.825 459.63 298.705 459.63C283.375 459.63 270.565 449.34 270.565 423.3C270.565 397.26 283.585 387.39 298.705 387.39ZM163 78V103H456V228H32V435H139V410H57V253H481V78H163ZM86.1104 31.8701C55.0305 31.8701 37.6001 48.8798 35.71 71.3496H63.6396C64.8998 59.5898 72.8806 53.5 85.6904 53.5C98.7101 53.5001 107.11 59.5901 107.11 75.3398V77.8604C62.3805 81.6403 31.5099 90.4599 31.5098 117.76C31.5098 138.34 49.1503 150.73 70.5703 150.73C88.0002 150.73 100.81 145.48 108.79 133.72C108.79 138.13 109 142.75 109.63 148H138.82C136.93 137.71 135.67 120.91 135.67 104.11V79.3301C135.67 45.9402 118.03 31.8702 86.1104 31.8701ZM108.16 100.54C108.16 123.64 95.3495 130.36 80.0195 130.36C69.3098 130.36 61.96 124.69 61.96 116.08C61.96 102.85 80.2302 98.8598 108.16 96.3398V100.54Z" fill="black"/>
</svg>
