<svg width="512" height="512" viewBox="0 0 512 512" fill="none" xmlns="http://www.w3.org/2000/svg">
<rect width="512" height="512" fill="white"/>
<path fill-rule="evenodd" clip-rule="evenodd" d="M298.705 364.29C328.105 364.29 356.455 382.35 356.455 423.3C356.455 464.25 328.105 482.73 298.705 482.73C269.095 482.73 240.745 464.25 240.745 423.3C240.745 382.35 269.095 364.29 298.705 364.29ZM298.705 387.39C283.585 387.39 270.565 397.26 270.565 423.3C270.565 449.34 283.375 459.63 298.705 459.63C313.825 459.63 326.636 449.34 326.636 423.3C326.636 397.26 313.615 387.39 298.705 387.39Z" fill="black"/>
<path d="M226.5 366.18C228.18 366.18 230.07 366.18 231.96 366.39V395.37C227.97 394.95 225.24 394.74 222.09 394.74C205.08 394.74 196.26 402.09 196.26 422.46V480H167.28V367.02H195.21V387.81C200.67 374.79 210.96 366.81 226.5 366.18Z" fill="black"/>
<path d="M407.285 382.77C412.745 373.53 424.716 364.71 442.775 364.71C471.125 364.71 480.575 381.93 480.575 410.91V480H451.596V418.47C451.596 401.67 450.335 387.81 431.646 387.81C415.476 387.81 407.285 398.73 407.285 420.78V480H378.306V327.75H407.285V382.77Z" fill="black"/>
<path d="M481 253H57V410H139V435H32V228H456V103H163V78H481V253Z" fill="black"/>
<path fill-rule="evenodd" clip-rule="evenodd" d="M86.1104 31.8701C118.03 31.8702 135.67 45.9402 135.67 79.3301V104.11C135.67 120.91 136.93 137.71 138.82 148H109.63C109 142.75 108.79 138.13 108.79 133.72C100.81 145.48 88.0002 150.73 70.5703 150.73C49.1503 150.73 31.5098 138.34 31.5098 117.76C31.5099 90.4599 62.3805 81.6403 107.11 77.8604V75.3398C107.11 59.5901 98.7101 53.5001 85.6904 53.5C72.8806 53.5 64.8998 59.5898 63.6396 71.3496H35.71C37.6001 48.8798 55.0305 31.8701 86.1104 31.8701ZM108.16 96.3398C80.2302 98.8598 61.96 102.85 61.96 116.08C61.96 124.69 69.3098 130.36 80.0195 130.36C95.3495 130.36 108.16 123.64 108.16 100.54V96.3398Z" fill="black"/>
</svg>
